<svg width="99" height="105" viewBox="0 0 99 105" fill="none" xmlns="http://www.w3.org/2000/svg">
<path d="M55.4219 90.3372L15.0146 49.9299C10.0593 44.9746 10.0593 36.9406 15.0146 31.9853L38.2112 8.78895C40.9916 6.0085 45.4998 6.0085 48.2803 8.78895L96.5631 57.0717C99.3435 59.8522 99.3435 64.3604 96.5631 67.1409L73.3667 90.3374C68.4112 95.2925 60.3772 95.2925 55.4219 90.3372Z" fill="#5EC682"/>
<path d="M79.7632 65.141V5.98028C79.7632 2.6775 77.0857 0 73.7829 0H34.6546C31.3518 0 28.6743 2.6775 28.6743 5.98028V65.141C28.6743 68.4438 31.3518 71.1213 34.6546 71.1213H73.7827C77.0857 71.1215 79.7632 68.444 79.7632 65.141Z" fill="#FBF1CF"/>
<path d="M67.9234 34.2677C70.405 29.6256 69.5911 23.7876 65.814 20.0103L56.9023 11.0986C54.6185 8.81467 51.5813 7.55692 48.3507 7.55692C46.1613 7.55692 44.0322 8.14529 42.1596 9.26276C39.9403 8.00256 37.4219 7.33154 34.8004 7.33154C32.6526 7.33154 30.5758 7.78579 28.6743 8.64158V65.141C28.6743 68.4438 31.3518 71.1213 34.6546 71.1213H73.7827C77.0855 71.1213 79.763 68.4438 79.763 65.141V46.1073L67.9234 34.2677Z" fill="#FAE0BD"/>
<path d="M71.3014 21.4568H37.1357C36.2863 21.4568 35.5977 20.7681 35.5977 19.9187C35.5977 19.0693 36.2863 18.3806 37.1357 18.3806H71.3014C72.1508 18.3806 72.8394 19.0693 72.8394 19.9187C72.8394 20.7681 72.1508 21.4568 71.3014 21.4568Z" fill="#59636F"/>
<path d="M71.3014 30.5386H37.1357C36.2863 30.5386 35.5977 29.8499 35.5977 29.0005C35.5977 28.1511 36.2863 27.4624 37.1357 27.4624H71.3014C72.1508 27.4624 72.8394 28.1511 72.8394 29.0005C72.8394 29.8499 72.1508 30.5386 71.3014 30.5386Z" fill="#59636F"/>
<path d="M71.3014 39.6201H37.1357C36.2863 39.6201 35.5977 38.9315 35.5977 38.082C35.5977 37.2326 36.2863 36.5439 37.1357 36.5439H71.3014C72.1508 36.5439 72.8394 37.2326 72.8394 38.082C72.8394 38.9315 72.1508 39.6201 71.3014 39.6201Z" fill="#59636F"/>
<path d="M59.2888 33.2582L60.8341 30.9109C61.9495 29.2167 61.7206 26.9719 60.2863 25.5376L51.3746 16.626C49.9403 15.1916 47.6955 14.9628 46.0014 16.0782L43.654 17.6235C42.4498 18.4163 40.8541 18.2537 39.8347 17.234C37.0542 14.4536 32.546 14.4536 29.7655 17.234L3.46366 43.5363C-0.685478 47.6855 -0.685478 54.4124 3.46366 58.5614L46.7905 101.888C50.9397 106.037 57.6666 106.037 61.8156 101.888L88.1176 75.5861C90.8981 72.8057 90.8981 68.2974 88.1176 65.517L59.6782 37.0776C58.6588 36.0581 58.496 34.4624 59.2888 33.2582Z" fill="#88D37F"/>
<path d="M31.3436 16.0444C30.7782 16.3588 30.2458 16.754 29.7655 17.2341L3.46366 43.5362C-0.685478 47.6853 -0.685478 54.4123 3.46366 58.5612L36.8416 91.9391C23.0607 68.8676 23.7576 30.8576 31.3436 16.0444Z" fill="#5EC682"/>
<path d="M34.5601 66.4202C36.5686 68.4267 36.1541 72.0976 33.6345 74.6199C31.1149 77.1419 27.4445 77.5601 25.4359 75.5536C23.4274 73.5471 23.8419 69.876 26.3612 67.3539C28.881 64.8317 32.5517 64.4137 34.5601 66.4202Z" fill="white"/>
<path d="M50.1636 50.8009C52.1721 52.8074 55.8426 52.3892 58.3622 49.8672C60.8818 47.3451 61.2961 43.674 59.2877 41.6675C57.2792 39.6611 53.6085 40.079 51.0891 42.6013C48.5695 45.1233 48.1553 48.7944 50.1636 50.8009Z" fill="white"/>
<path d="M45.1897 52.4919C42.4232 49.7282 40.1612 51.4726 37.6914 53.9449C35.2216 56.4171 33.4795 58.6809 36.246 61.4446C39.0123 64.2082 43.2572 64.4445 45.7268 61.9722C48.1965 59.5 47.9562 55.2555 45.1897 52.4919Z" fill="#4E5660"/>
<path d="M48.0133 46.1708C47.6187 46.1708 47.2242 46.0198 46.9237 45.7182L45.1344 43.9221C44.535 43.3202 44.5368 42.3465 45.1385 41.7468C45.7402 41.1472 46.7141 41.149 47.3138 41.7512L49.1031 43.5472C49.7025 44.1491 49.7007 45.1228 49.0988 45.7223C48.7985 46.0213 48.4058 46.1708 48.0133 46.1708Z" fill="#4E5660"/>
<path d="M26.9704 66.8668C26.5756 66.8668 26.1811 66.7158 25.8806 66.414C25.0308 65.5604 24.564 64.4272 24.5669 63.2225C24.5696 62.0181 25.041 60.8869 25.8946 60.0371C27.6566 58.283 30.5172 58.2892 32.2713 60.051C32.8705 60.6529 32.8685 61.6268 32.2666 62.2261C31.6645 62.8253 30.6905 62.8233 30.0913 62.2214C29.8212 61.9502 29.4617 61.8003 29.079 61.7995C29.078 61.7995 29.077 61.7995 29.0758 61.7995C28.6943 61.7995 28.3354 61.9478 28.0649 62.217C27.7938 62.4871 27.6439 62.8466 27.6431 63.2293C27.6423 63.612 27.7905 63.9721 28.0604 64.2432C28.6599 64.8451 28.6578 65.819 28.0559 66.4183C27.7555 66.7175 27.3629 66.8668 26.9704 66.8668Z" fill="#4E5660"/>
<path d="M37.6382 92.7432L76.4815 53.8999L78.6564 56.0747L39.813 94.918L37.6382 92.7432Z" fill="#5EC682"/>
</svg>
