<svg width="98" height="92" viewBox="0 0 98 92" fill="none" xmlns="http://www.w3.org/2000/svg">
<path d="M89.9416 91.06H8.05839C3.60782 91.06 0 87.452 0 83.0016V78.6609H93.6593C96.0566 78.6609 98 80.6042 98 83.0016C98 87.452 94.3922 91.06 89.9416 91.06Z" fill="#A7A7A7"/>
<path d="M70.5022 22.4502H9.212C4.12442 22.4502 0 26.5746 0 31.6622V78.6609H79.7142V31.6622C79.7142 26.5746 75.5898 22.4502 70.5022 22.4502Z" fill="#59636F"/>
<path d="M39.857 57.4765C57.0751 57.4765 71.083 43.4686 71.083 26.2506C71.083 24.9672 71.0036 23.7024 70.8524 22.4592C70.736 22.4548 70.6198 22.4504 70.5023 22.4504H9.21207C9.09474 22.4504 8.97837 22.4548 8.86199 22.4592C8.71078 23.7024 8.63135 24.9674 8.63135 26.2506C8.63135 43.4686 22.6392 57.4765 39.857 57.4765Z" fill="#455060"/>
<path d="M8.00146 67.5824V33.5285C8.00146 31.8292 9.37901 30.4517 11.0783 30.4517H68.6361C70.3354 30.4517 71.7129 31.8292 71.7129 33.5285V67.5824C71.7129 69.2817 70.3354 70.6592 68.6361 70.6592H11.0783C9.37901 70.6592 8.00146 69.2817 8.00146 67.5824Z" fill="#CDE9FA"/>
<path d="M23.3796 69.4361C26.7375 69.4361 29.4596 67.2683 29.4596 64.5942C29.4596 61.9202 26.7375 59.7524 23.3796 59.7524C20.0217 59.7524 17.2996 61.9202 17.2996 64.5942C17.2996 67.2683 20.0217 69.4361 23.3796 69.4361Z" fill="#EDA1AB"/>
<path d="M56.3347 69.4361C59.6926 69.4361 62.4147 67.2683 62.4147 64.5942C62.4147 61.9202 59.6926 59.7524 56.3347 59.7524C52.9768 59.7524 50.2546 61.9202 50.2546 64.5942C50.2546 67.2683 52.9768 69.4361 56.3347 69.4361Z" fill="#EDA1AB"/>
<path d="M26.9229 61.3093C26.1299 61.3093 25.4873 60.6665 25.4873 59.8737V57.5076C25.4873 56.7148 26.1299 56.072 26.9229 56.072C27.7158 56.072 28.3584 56.7148 28.3584 57.5076V59.8737C28.3584 60.6665 27.7158 61.3093 26.9229 61.3093Z" fill="#4E5660"/>
<path d="M39.8568 62.8486C38.1351 62.8486 36.4977 62.1029 35.3645 60.8026C34.8435 60.2051 34.9061 59.2982 35.5037 58.7772C36.1012 58.2564 37.0079 58.3184 37.5291 58.9163C38.1168 59.5907 38.9653 59.9775 39.8568 59.9775C40.7486 59.9775 41.5971 59.5907 42.1847 58.9163C42.7057 58.3186 43.6126 58.2564 44.2102 58.7772C44.8077 59.2982 44.8701 60.2051 44.3493 60.8026C43.2162 62.1029 41.5789 62.8486 39.8568 62.8486Z" fill="#4E5660"/>
<path d="M55.9905 61.2436C55.1975 61.2436 54.555 60.6008 54.555 59.808C54.555 59.0876 53.9687 58.5015 53.2484 58.5015C52.528 58.5015 51.9419 59.0876 51.9419 59.808C51.9419 60.6008 51.2993 61.2436 50.5063 61.2436C49.7134 61.2436 49.0708 60.6008 49.0708 59.808C49.0708 57.5044 50.9449 55.6304 53.2484 55.6304C55.552 55.6304 57.4261 57.5044 57.4261 59.808C57.4261 60.6008 56.7833 61.2436 55.9905 61.2436Z" fill="#4E5660"/>
<path d="M68.6361 30.4517H11.0783C10.291 30.4517 9.57517 30.7499 9.03101 31.2362C11.4253 46.0926 24.3358 57.4763 39.857 57.4763C55.3783 57.4763 68.289 46.0926 70.6831 31.2362C70.1392 30.7499 69.4233 30.4517 68.6361 30.4517Z" fill="#A2DDFD"/>
<path d="M39.8571 51.561C53.8356 51.561 65.1675 40.2292 65.1675 26.2506C65.1675 12.272 53.8356 0.940186 39.8571 0.940186C25.8785 0.940186 14.5466 12.272 14.5466 26.2506C14.5466 40.2292 25.8785 51.561 39.8571 51.561Z" fill="#88D37F"/>
<path d="M57.9331 43.9646C24.1187 43.2668 23.0024 12.9337 29.4019 3.19434C20.64 7.17386 14.5466 16.0006 14.5466 26.2506C14.5466 40.2292 25.8785 51.561 39.857 51.561C46.9383 51.561 53.3393 48.6518 57.9331 43.9646Z" fill="#5EC682"/>
<path d="M39.8571 43.9783C49.6478 43.9783 57.5847 36.0413 57.5847 26.2506C57.5847 16.4599 49.6478 8.52295 39.8571 8.52295C30.0663 8.52295 22.1294 16.4599 22.1294 26.2506C22.1294 36.0413 30.0663 43.9783 39.8571 43.9783Z" fill="#FBF1CF"/>
<path d="M26.3535 14.7661C23.7198 17.8598 22.1294 21.8692 22.1294 26.2507C22.1294 36.0413 30.0662 43.9783 39.8571 43.9783C42.3947 43.9783 44.807 43.4439 46.9896 42.4836C31.1232 38.1456 26.1038 25.1987 26.3535 14.7661Z" fill="#FAE0BD"/>
<path d="M39.857 27.6861C39.4897 27.6861 39.1222 27.546 38.8417 27.2656L32.618 21.0418C32.0574 20.4812 32.0574 19.5722 32.618 19.0118C33.1788 18.4512 34.0876 18.4512 34.6482 19.0118L40.872 25.2355C41.4326 25.7962 41.4326 26.7052 40.872 27.2658C40.5918 27.5458 40.2243 27.6861 39.857 27.6861Z" fill="#59636F"/>
<path d="M45.6028 27.6863H39.8569C39.0639 27.6863 38.4214 27.0435 38.4214 26.2507C38.4214 25.4579 39.0639 24.8152 39.8569 24.8152H45.6028C46.3958 24.8152 47.0383 25.4579 47.0383 26.2507C47.0383 27.0435 46.3958 27.6863 45.6028 27.6863Z" fill="#E16E7E"/>
<path d="M58.1431 78.6609H39.8569L40.627 80.9941C41.3886 83.3017 43.5444 84.8604 45.9745 84.8604H52.0254C54.4553 84.8604 56.6113 83.3015 57.3729 80.9941L58.1431 78.6609Z" fill="#8B97A5"/>
</svg>
