<svg width="90" height="98" viewBox="0 0 90 98" fill="none" xmlns="http://www.w3.org/2000/svg">
<path d="M7.93677 71.4272H70.1337V91.2345H7.93677V71.4272Z" fill="#FBF1CF"/>
<path d="M33.5165 71.4272H7.93677V91.2345H37.5467V89.6097C33.546 87.1333 31.2288 76.5393 33.5165 73.344V71.4272Z" fill="#FAE0BD"/>
<path d="M74.9923 4.85866C74.9923 2.17533 72.8169 0 70.1336 0H16.7705C7.57918 0 0.101318 7.47786 0.101318 16.6692V81.331L9.78858 69.5205H74.9923V4.85866Z" fill="#F6EE86"/>
<path d="M40.8194 69.5205C15.3746 51.4904 11.5866 14.8876 11.4374 0.880127C4.85451 3.10982 0.101318 9.34296 0.101318 16.6692V81.3311L9.78858 69.5205H40.8194Z" fill="#F2D98D"/>
<path d="M16.7705 0C7.57918 0 0.101318 7.47786 0.101318 16.6692V81.331L9.78858 69.5205H16.7705V0Z" fill="#B0ADE2"/>
<path d="M11.4374 0.880127C4.85451 3.10982 0.101318 9.34296 0.101318 16.6692V81.3311L9.78858 69.5205H16.7705V34.0941C12.5167 20.7944 11.5128 7.95527 11.4374 0.880127Z" fill="#A09CDC"/>
<path d="M70.1338 0H26.2139V69.5205H74.9924V4.85866C74.9924 2.17533 72.8171 0 70.1338 0V0Z" fill="#B0ADE2"/>
<path d="M26.2139 54.2339V69.5206H40.8195C34.8287 65.2755 30.0387 60.0008 26.2139 54.2339Z" fill="#A09CDC"/>
<path d="M70.1336 98H16.7705C7.57918 98 0.101318 90.5224 0.101318 81.331C0.101318 72.1397 7.57918 64.6619 16.7705 64.6619H70.1336C72.8171 64.6619 74.9923 66.8372 74.9923 69.5205C74.9923 72.204 72.8169 74.3792 70.1336 74.3792H16.7705C12.9372 74.3792 9.81863 77.4978 9.81863 81.331C9.81863 85.1642 12.9372 88.2827 16.7705 88.2827H70.1336C72.8171 88.2827 74.9923 90.4581 74.9923 93.1414C74.9923 95.8247 72.8169 98 70.1336 98Z" fill="#A2DDFD"/>
<path d="M43.2288 44.8478C42.436 44.8478 41.7932 44.2053 41.7932 43.4123V25.556C41.7932 22.8194 42.8588 20.2469 44.7939 18.3118L47.5678 15.5378C48.1286 14.9773 49.0374 14.9773 49.598 15.5378C50.1586 16.0986 50.1586 17.0074 49.598 17.568L46.8239 20.3421C45.4313 21.7345 44.6641 23.5862 44.6641 25.5558V43.4121C44.6643 44.2051 44.0218 44.8478 43.2288 44.8478Z" fill="#F2D98D"/>
<path d="M70.6653 44.8483C70.1695 44.8483 69.6876 44.5914 69.4215 44.1315C68.6846 42.8582 67.3147 42.0673 65.846 42.0673C64.3774 42.0673 63.0075 42.8582 62.2706 44.1313C61.8736 44.8176 60.995 45.0517 60.309 44.6546C59.6228 44.2576 59.3884 43.3792 59.7857 42.693C61.0339 40.5361 63.3562 39.196 65.846 39.196C68.336 39.196 70.6584 40.5363 71.9065 42.6934C72.3035 43.3796 72.069 44.2578 71.3828 44.655C71.1564 44.7859 70.9091 44.8483 70.6653 44.8483Z" fill="#F2D98D"/>
<path d="M52.1286 52.3119C57.0438 52.3119 61.0283 48.3274 61.0283 43.4123C61.0283 38.4972 57.0438 34.5127 52.1286 34.5127C47.2135 34.5127 43.229 38.4972 43.229 43.4123C43.229 48.3274 47.2135 52.3119 52.1286 52.3119Z" fill="#A2DDFD"/>
<path d="M79.5637 52.3119C84.4788 52.3119 88.4633 48.3274 88.4633 43.4123C88.4633 38.4972 84.4788 34.5127 79.5637 34.5127C74.6486 34.5127 70.6641 38.4972 70.6641 43.4123C70.6641 48.3274 74.6486 52.3119 79.5637 52.3119Z" fill="#A2DDFD"/>
<path d="M52.1286 53.7475C46.4296 53.7475 41.7932 49.1111 41.7932 43.4123C41.7932 37.7136 46.4296 33.0771 52.1286 33.0771C57.8273 33.0771 62.4637 37.7136 62.4637 43.4123C62.4637 49.1111 57.8273 53.7475 52.1286 53.7475ZM52.1286 35.9482C48.0128 35.9482 44.6643 39.2965 44.6643 43.4123C44.6643 47.5281 48.0128 50.8764 52.1286 50.8764C56.2444 50.8764 59.5927 47.5281 59.5927 43.4123C59.5927 39.2965 56.2444 35.9482 52.1286 35.9482Z" fill="#F6EE86"/>
<path d="M88.4632 44.8479C87.6704 44.8479 87.0277 44.2053 87.0277 43.4123V25.556C87.0277 23.5866 86.2607 21.735 84.8679 20.3423L82.0938 17.5683C81.5332 17.0074 81.5332 16.0986 82.0938 15.538C82.6546 14.9776 83.5634 14.9776 84.1241 15.538L86.8981 18.3121C88.833 20.2472 89.8988 22.8199 89.8988 25.5562V43.4125C89.8988 44.2051 89.2562 44.8479 88.4632 44.8479Z" fill="#F2D98D"/>
<path d="M79.5639 53.7475C73.865 53.7475 69.2285 49.1111 69.2285 43.4123C69.2285 37.7136 73.865 33.0771 79.5639 33.0771C85.2626 33.0771 89.8991 37.7136 89.8991 43.4123C89.8991 49.1111 85.2626 53.7475 79.5639 53.7475ZM79.5639 35.9482C75.4481 35.9482 72.0996 39.2965 72.0996 43.4123C72.0996 47.5281 75.4481 50.8764 79.5639 50.8764C83.6797 50.8764 87.028 47.5281 87.028 43.4123C87.028 39.2965 83.6797 35.9482 79.5639 35.9482Z" fill="#F6EE86"/>
</svg>
