<svg width="98" height="98" viewBox="0 0 98 98" fill="none" xmlns="http://www.w3.org/2000/svg">
<path d="M94.7625 66.8638L66.8637 94.7626C62.5477 99.0786 55.5503 99.0786 51.2345 94.7626L3.23628 46.7644C-1.07974 42.4483 -1.07974 35.4509 3.23628 31.1351L31.1351 3.23628C35.4511 -1.07974 42.4485 -1.07974 46.7644 3.23628L94.7624 51.2343C99.0784 55.5503 99.0784 62.5479 94.7625 66.8638Z" fill="#59636F"/>
<path d="M34.8756 9.02092L27.3116 16.5849C26.4338 17.4627 26.1888 18.7616 26.5969 19.9338C27.1833 21.6179 26.4843 23.4888 24.9868 24.9863C23.4892 26.4839 21.6184 27.1829 19.9342 26.5964C18.762 26.1882 17.4631 26.4333 16.5854 27.3111L9.02117 34.8753C6.77061 37.1259 6.77061 40.7748 9.02117 43.0254L54.9749 88.979C57.2255 91.2295 60.8745 91.2295 63.125 88.979L88.9792 63.1248C91.2298 60.8742 91.2298 57.2253 88.9792 54.9747L43.0255 9.02092C40.7749 6.77037 37.1261 6.77037 34.8756 9.02092Z" fill="#B0ADE2"/>
<path d="M46.548 59.3329C44.9312 59.3329 43.3355 58.8986 41.9336 58.0771C39.8344 56.8471 36.5915 56.8471 35.5259 56.8471C26.7042 56.8471 19.5276 49.6701 19.5276 40.8486C19.5276 32.0271 26.7044 24.8503 35.5259 24.8503C36.5915 24.8503 39.8346 24.8503 41.934 23.6201C43.3355 22.7988 44.9312 22.3645 46.548 22.3645C50.3193 22.3645 53.6373 24.6327 55.0013 28.1431C55.3181 28.9579 55.608 29.796 55.8685 30.647C60.4971 31.7315 63.9545 35.8941 63.9545 40.8486C63.9545 45.8032 60.4973 49.9659 55.8685 51.0504C55.6079 51.9016 55.3181 52.7397 55.0013 53.5545C53.6373 57.0647 50.3193 59.3329 46.548 59.3329Z" fill="#A09CDC"/>
<path d="M34.8755 9.02092L27.3116 16.5849C26.4338 17.4627 26.1888 18.7616 26.5968 19.9338C27.1833 21.6179 26.4843 23.4887 24.9867 24.9863C23.4892 26.4839 21.6184 27.1829 19.9342 26.5964C18.762 26.1881 17.4631 26.4333 16.5853 27.3111L9.02117 34.8751C6.77061 37.1257 6.77061 40.7746 9.02117 43.0252L16.9682 50.9722C25.0248 51.7365 34.1874 48.3932 41.2903 41.2901C48.3934 34.187 51.7365 25.0246 50.9724 16.9679L43.0254 9.02092C40.7749 6.77037 37.1261 6.77037 34.8755 9.02092Z" fill="#E7889D"/>
<path d="M50.7458 23.3814C49.4817 22.7259 48.0511 22.3645 46.548 22.3645C44.9312 22.3645 43.3355 22.7988 41.934 23.6201C39.8346 24.8503 36.5916 24.8503 35.5259 24.8503C26.7042 24.8503 19.5276 32.0271 19.5276 40.8486C19.5276 44.6088 20.8349 48.0677 23.0144 50.8017C29.3718 49.8803 35.9198 46.661 41.2905 41.2904C46.5578 36.0229 49.7552 29.6232 50.7458 23.3814Z" fill="#E16E7E"/>
<path d="M56.4507 79.8441C58.8327 77.4621 59.226 73.9933 57.3291 72.0964C55.4322 70.1995 51.9634 70.5928 49.5814 72.9748C47.1993 75.3568 46.8061 78.8256 48.703 80.7225C50.5999 82.6194 54.0687 82.2262 56.4507 79.8441Z" fill="white"/>
<path d="M79.8323 56.4674C82.2143 54.0854 82.6076 50.6166 80.7107 48.7197C78.8138 46.8228 75.345 47.2161 72.963 49.5981C70.5809 51.9801 70.1877 55.4489 72.0846 57.3458C73.9815 59.2427 77.4502 58.8494 79.8323 56.4674Z" fill="white"/>
<path d="M64.6299 64.6426C65.8943 63.3782 65.7723 61.2062 64.3574 59.7913C62.9426 58.3765 60.7706 58.2545 59.5062 59.5189C58.2418 60.7833 58.3638 62.9553 59.7786 64.3702C61.1935 65.785 63.3654 65.907 64.6299 64.6426Z" fill="#4E5660"/>
<path d="M49.6058 72.9807C49.2385 72.9807 48.871 72.8406 48.5907 72.5603L46.9175 70.8873C46.3566 70.3266 46.3566 69.4176 46.9173 68.857C47.4781 68.2964 48.3871 68.2964 48.9473 68.8568L50.6206 70.5299C51.1814 71.0905 51.1814 71.9995 50.6208 72.5601C50.3406 72.8404 49.9731 72.9807 49.6058 72.9807Z" fill="#4E5660"/>
<path d="M71.5448 51.0414C71.1775 51.0414 70.81 50.9011 70.5296 50.6209L68.8565 48.9478C68.2959 48.3872 68.2959 47.4782 68.8565 46.9175C69.4173 46.3569 70.3261 46.3569 70.8869 46.9175L72.56 48.5906C73.1206 49.1513 73.1206 50.0602 72.56 50.6207C72.2796 50.9011 71.9121 51.0414 71.5448 51.0414Z" fill="#4E5660"/>
<path d="M56.6925 44.075C58.4736 42.2939 58.4736 39.4063 56.6925 37.6252C54.9115 35.8441 52.0238 35.8441 50.2427 37.6252C48.4617 39.4063 48.4617 42.2939 50.2427 44.075C52.0238 45.8561 54.9115 45.8561 56.6925 44.075Z" fill="#F6EE86"/>
<path d="M51.5321 40.8499C51.5321 36.7586 50.5487 33.0179 49.4873 30.2868C48.7785 28.4625 46.613 27.7357 44.9244 28.7253C41.9275 30.4814 38.3326 30.7672 35.5258 30.7672C29.9572 30.7672 25.4429 35.2815 25.4429 40.8501C25.4429 46.4187 29.9572 50.933 35.5258 50.933C38.3326 50.933 41.9275 51.2188 44.9244 52.9749C46.613 53.9645 48.7785 53.2375 49.4873 51.4134C50.5487 48.6819 51.5321 44.9412 51.5321 40.8499Z" fill="#F6EE86"/>
<path d="M34.0546 30.874C29.1835 31.5862 25.4429 35.7801 25.4429 40.849C25.4429 46.4176 29.9572 50.9319 35.5258 50.9319C37.1366 50.9319 39.0069 51.0278 40.875 51.4399C33.2182 45.1225 32.1494 37.0909 34.0546 30.874Z" fill="#F2D98D"/>
<path d="M42.2192 29.9005C43.3371 32.6596 44.4173 36.5611 44.4173 40.8487C44.4173 45.1364 43.3371 49.0379 42.2192 51.797C43.1483 52.0872 44.0615 52.4677 44.9246 52.9734C46.6132 53.9629 48.7787 53.236 49.4875 51.4119C50.5489 48.6807 51.5323 44.9399 51.5323 40.8487C51.5323 36.7574 50.5489 33.0168 49.4875 30.2856C48.7787 28.4613 46.6132 27.7346 44.9246 28.7239C44.0615 29.2298 43.1483 29.6103 42.2192 29.9005Z" fill="#E0B799"/>
<path d="M90.7342 29.1239C89.9412 29.1239 89.2986 28.4811 89.2986 27.6883C89.2986 17.8594 81.3022 9.86304 71.4731 9.86304C70.6801 9.86304 70.0376 9.22029 70.0376 8.42749C70.0376 7.63469 70.6801 6.99194 71.4731 6.99194C82.8852 6.99194 92.1697 16.2763 92.1697 27.6883C92.1697 28.4811 91.5272 29.1239 90.7342 29.1239Z" fill="#F2D98D"/>
<path d="M82.5311 29.1238C81.7381 29.1238 81.0955 28.4811 81.0955 27.6883C81.0955 22.3825 76.7789 18.0659 71.4731 18.0659C70.6801 18.0659 70.0376 17.4232 70.0376 16.6304C70.0376 15.8376 70.6801 15.1948 71.4731 15.1948C78.3621 15.1948 83.9666 20.7994 83.9666 27.6883C83.9666 28.4811 83.3239 29.1238 82.5311 29.1238Z" fill="#F2D98D"/>
</svg>
