<svg width="98" height="98" viewBox="0 0 98 98" fill="none" xmlns="http://www.w3.org/2000/svg">
<path d="M37.4188 74.0788C57.8751 74.0788 74.4582 57.4957 74.4582 37.0394C74.4582 16.5831 57.8751 0 37.4188 0C16.9625 0 0.379395 16.5831 0.379395 37.0394C0.379395 57.4957 16.9625 74.0788 37.4188 74.0788Z" fill="#F6EE86"/>
<path d="M63.9292 37.0393C63.9292 37.8562 64.5913 38.5181 65.408 38.5181H74.4263C74.4456 38.0273 74.4583 37.5348 74.4583 37.0393C74.4583 36.5437 74.4456 36.0513 74.4263 35.5603H65.408C64.5913 35.5605 63.9292 36.2226 63.9292 37.0393Z" fill="#F2D98D"/>
<path d="M37.4187 10.5291C38.2356 10.5291 38.8975 9.86699 38.8975 9.05026V0.0319648C38.4067 0.0126328 37.9142 0 37.4187 0C36.9231 0 36.4307 0.0126328 35.9397 0.0319648V9.05026C35.9397 9.86699 36.6018 10.5291 37.4187 10.5291Z" fill="#F2D98D"/>
<path d="M10.9085 37.0393C10.9085 36.2224 10.2464 35.5605 9.42966 35.5605H0.411359C0.392027 36.0513 0.379395 36.5438 0.379395 37.0393C0.379395 37.5349 0.392027 38.0274 0.411359 38.5183H9.42966C10.2464 38.5183 10.9085 37.8563 10.9085 37.0393Z" fill="#F2D98D"/>
<path d="M32.1114 51.0109C26.5472 51.0109 22.0205 55.5377 22.0205 61.1019V64.7411C19.7561 64.9403 17.7044 65.8912 16.116 67.3413C22.1414 71.5852 29.4886 74.0786 37.4189 74.0786C52.9316 74.0786 66.2144 64.5411 71.7298 51.0107H32.1114V51.0109Z" fill="#F2D98D"/>
<path d="M57.9951 57.6238C69.3635 46.2555 69.3635 27.8236 57.9951 16.4553C46.6267 5.08686 28.1949 5.08686 16.8265 16.4553C5.45809 27.8236 5.45809 46.2555 16.8265 57.6238C28.1949 68.9922 46.6267 68.9922 57.9951 57.6238Z" fill="#E0B799"/>
<path d="M32.1114 51.0112C26.5473 51.0112 22.0205 55.5379 22.0205 61.1021V61.7514C26.4875 64.5407 31.7644 66.1545 37.4189 66.1545C48.4355 66.1545 58.0219 60.0354 62.9675 51.011H32.1114V51.0112Z" fill="#D99A84"/>
<path d="M21.9643 31.4326C25.1137 31.4326 27.6667 29.3994 27.6667 26.8915C27.6667 24.3835 25.1137 22.3503 21.9643 22.3503C18.815 22.3503 16.262 24.3835 16.262 26.8915C16.262 29.3994 18.815 31.4326 21.9643 31.4326Z" fill="white"/>
<path d="M52.8735 31.4326C56.0229 31.4326 58.5759 29.3994 58.5759 26.8915C58.5759 24.3835 56.0229 22.3503 52.8735 22.3503C49.7242 22.3503 47.1711 24.3835 47.1711 26.8915C47.1711 29.3994 49.7242 31.4326 52.8735 31.4326Z" fill="white"/>
<path d="M28.002 23.3855C27.209 23.3855 26.5664 22.7427 26.5664 21.9499C26.5664 21.2448 25.9928 20.6711 25.2876 20.6711C24.5825 20.6711 24.009 21.2448 24.009 21.9499C24.009 22.7427 23.3665 23.3855 22.5735 23.3855C21.7805 23.3855 21.1379 22.7427 21.1379 21.9499C21.1379 19.6617 22.9996 17.8 25.2876 17.8C27.5759 17.8 29.4375 19.6617 29.4375 21.9499C29.4375 22.7427 28.795 23.3855 28.002 23.3855Z" fill="#59636F"/>
<path d="M52.2644 23.3855C51.4714 23.3855 50.8288 22.7427 50.8288 21.9499C50.8288 21.2448 50.2552 20.6711 49.55 20.6711C48.8449 20.6711 48.2712 21.2448 48.2712 21.9499C48.2712 22.7427 47.6287 23.3855 46.8357 23.3855C46.0427 23.3855 45.4001 22.7427 45.4001 21.9499C45.4001 19.6617 47.2616 17.8 49.55 17.8C51.8383 17.8 53.6999 19.6617 53.6999 21.9499C53.6999 22.7427 53.0572 23.3855 52.2644 23.3855Z" fill="#59636F"/>
<path d="M37.419 27.8695C35.9005 27.8695 34.4568 27.2118 33.4576 26.0655C32.9366 25.4677 32.999 24.5611 33.5968 24.0401C34.1943 23.5192 35.101 23.5814 35.6222 24.179C36.0759 24.6996 36.7309 24.9982 37.4191 24.9982C38.1073 24.9982 38.7622 24.6994 39.2163 24.1788C39.7371 23.5811 40.6438 23.519 41.2417 24.0401C41.8393 24.5611 41.9013 25.4679 41.3805 26.0655C40.381 27.212 38.937 27.8695 37.419 27.8695Z" fill="#59636F"/>
<path d="M40.2044 45.0395C39.775 44.8878 39.3358 44.7287 38.8978 44.5629V37.5697C39.9995 37.8337 40.6561 38.3909 40.7131 38.441C41.3139 38.985 42.2423 38.9442 42.7926 38.3472C43.3463 37.7468 43.3086 36.8112 42.7081 36.2576C42.6241 36.1801 41.2112 34.9071 38.8976 34.5599V33.1314C38.8976 32.3145 38.2356 31.6526 37.4188 31.6526C36.6019 31.6526 35.94 32.3147 35.94 33.1314V34.6732C35.7205 34.7214 35.4979 34.7771 35.2701 34.8456C30.7839 36.1971 29.6558 42.2666 32.8806 44.7957C33.6554 45.4034 34.6195 45.96 35.94 46.5478V55.4151C34.7979 55.3309 34.0059 55.0516 32.7097 54.2037C32.0256 53.7566 31.1095 53.9482 30.6624 54.6315C30.2152 55.3152 30.4068 56.2316 31.0902 56.6788C32.9809 57.9154 34.2721 58.2843 35.94 58.3781V59.9775C35.94 60.7944 36.6021 61.4563 37.4188 61.4563C38.2357 61.4563 38.8976 60.7942 38.8976 59.9775V58.2605C45.4008 56.9844 47.2091 47.5156 40.2044 45.0395ZM35.9402 43.2568C35.4759 43.0049 35.0555 42.7421 34.706 42.468C33.4207 41.4597 33.8904 38.5147 35.9402 37.7412V43.2568ZM38.8978 55.1881V47.7133C39.0044 47.7516 39.1087 47.7895 39.2186 47.8281C43.0431 49.1799 42.1157 54.037 38.8978 55.1881Z" fill="#F2D98D"/>
<path d="M76.0239 98.0002H14.6904C12.3844 98.0002 10.5149 96.1307 10.5149 93.8247V88.4846C10.5149 86.1785 12.3844 84.3091 14.6904 84.3091H76.0239C78.3299 84.3091 80.1994 86.1785 80.1994 88.4846V93.8247C80.1994 96.1307 78.3299 98.0002 76.0239 98.0002Z" fill="#F6EE86"/>
<path d="M43.9214 84.3091H46.7925V98.0002H43.9214V84.3091Z" fill="#F2D98D"/>
<path d="M26.5002 84.3091H29.3713V98.0002H26.5002V84.3091Z" fill="#F2D98D"/>
<path d="M61.3425 84.3091H64.2136V98.0002H61.3425V84.3091Z" fill="#F2D98D"/>
<path d="M84.2463 84.309H22.9128C20.6068 84.309 18.7373 82.4395 18.7373 80.1335V74.7934C18.7373 72.4874 20.6068 70.6179 22.9128 70.6179H84.2463C86.5524 70.6179 88.4218 72.4874 88.4218 74.7934V80.1335C88.4218 82.4395 86.5524 84.309 84.2463 84.309Z" fill="#F2D98D"/>
<path d="M52.1438 70.6177H55.0149V84.3088H52.1438V70.6177Z" fill="#F6EE86"/>
<path d="M34.7227 70.6177H37.5937V84.3088H34.7227V70.6177Z" fill="#F6EE86"/>
<path d="M69.5649 70.6177H72.436V84.3088H69.5649V70.6177Z" fill="#F6EE86"/>
<path d="M93.445 70.6179H32.1113C29.8053 70.6179 27.9358 68.7484 27.9358 66.4423V61.1023C27.9358 58.7962 29.8053 56.9268 32.1113 56.9268H93.4448C95.7508 56.9268 97.6203 58.7962 97.6203 61.1023V66.4423C97.6203 68.7484 95.7508 70.6179 93.445 70.6179Z" fill="#F6EE86"/>
<path d="M61.3423 56.9265H64.2134V70.6176H61.3423V56.9265Z" fill="#F2D98D"/>
<path d="M43.9214 56.9265H46.7925V70.6176H43.9214V56.9265Z" fill="#F2D98D"/>
<path d="M78.7637 56.9265H81.6348V70.6176H78.7637V56.9265Z" fill="#F2D98D"/>
</svg>
